<?xml version="1.0"?>
<svg width="512" height="512" xmlns="http://www.w3.org/2000/svg" xmlns:svg="http://www.w3.org/2000/svg" preserveAspectRatio="xMidYMid meet">
 <metadata>Created by potrace 1.11, written by Peter Selinger 2001-2013</metadata>
 <g>
  <title>Layer 1</title>
  <g transform="translate(0,512) scale(0.10000000149011612,-0.10000000149011612) " fill="#000000" id="svg_1">
   <path d="m2285,5105c-511,-59 -992,-265 -1375,-591c-323,-275 -569,-615 -726,-1006c-351,-874 -187,-1881 422,-2598c222,-261 489,-473 786,-626c737,-377 1599,-377 2336,0c473,243 865,635 1108,1108c351,686 377,1491 70,2189c-85,192 -215,410 -344,574c-71,90 -317,336 -407,407c-360,283 -776,462 -1235,533c-146,22 -483,28 -635,10zm1891,-1260c39,-27 45,-60 42,-254l-3,-184l-36,-12c-19,-7 -107,-55 -195,-107c-87,-52 -186,-111 -219,-130c-33,-19 -303,-178 -600,-353c-297,-175 -551,-323 -565,-328c-23,-9 -107,37 -785,423c-418,238 -785,447 -815,465l-55,31l-3,190c-3,199 3,232 42,259c31,22 3161,22 3192,0zm32,-767c9,-9 12,-190 12,-754c0,-845 4,-803 -75,-723c-139,141 -865,935 -862,944c2,5 86,60 188,121c466,281 705,423 715,423c5,1 15,-4 22,-11zm-2756,-285c289,-166 468,-274 468,-283c0,-23 -928,-875 -954,-875l-21,0l-3,700c-1,385 0,706 3,713c2,6 12,12 22,12c10,0 228,-120 485,-267zm2034,-885c253,-271 491,-526 529,-566c80,-84 89,-98 81,-118c-5,-12 -214,-14 -1539,-14c-1616,0 -1575,-1 -1566,43c2,9 150,152 329,318c761,707 846,785 858,793c7,4 80,-31 185,-90c114,-64 185,-98 212,-101c36,-4 58,6 235,110c107,63 200,115 206,116c6,1 218,-220 470,-491z" id="svg_2" fill="#ffffff"/>
  </g>
 </g>
</svg>