<?xml version="1.0"?>
<svg width="49.49999999999999" height="49.49999999999999" xmlns="http://www.w3.org/2000/svg" xmlns:svg="http://www.w3.org/2000/svg">
 <g>
  <title>Layer 1</title>
  <g id="svg_1">
   <polygon points="34.90793585777283,19.361326217651367 34.90793585777283,15.414325714111328 34.90793585777283,14.824325561523438 34.31793570518494,14.826326370239258 30.370933294296265,14.840326309204102 30.385936498641968,19.376325607299805 " fill="#ffffff" fill-rule="evenodd" id="svg_2"/>
   <path d="m24.620935,29.837326c2.598,0 4.712999,-2.112999 4.712999,-4.711c0,-1.025 -0.334002,-1.975 -0.893003,-2.747999c-0.854998,-1.186001 -2.247995,-1.965 -3.819998,-1.965s-2.963001,0.778999 -3.82,1.965c-0.559,0.772999 -0.891001,1.723001 -0.891001,2.747999c0,2.598001 2.113001,4.711 4.711,4.711l0.000002,0z" fill="#ffffff" fill-rule="evenodd" id="svg_3"/>
   <path d="m24.743935,0.127326c-13.6,0 -24.625,11.023 -24.625,24.622996c0,13.600004 11.024998,24.625002 24.625,24.625002c13.598,0 24.623001,-11.024998 24.623001,-24.625002c0,-13.599998 -11.026001,-24.622996 -24.623001,-24.622996zm13.263,22.250998l0,10.961c0,2.852001 -2.321999,5.172001 -5.174,5.172001l-16.425003,0c-2.853001,0 -5.172999,-2.32 -5.172999,-5.172001l0,-10.961l0,-5.464001c0,-2.853001 2.32,-5.172999 5.172999,-5.172999l16.424999,0c2.852001,0 5.174,2.32 5.174,5.172999l0,5.464001l0.000004,0z" fill="#ffffff" fill-rule="evenodd" id="svg_4"/>
   <path d="m31.940933,25.126326c0,4.034998 -3.283001,7.320002 -7.32,7.320002s-7.318001,-3.285 -7.318001,-7.320002c0,-0.973 0.193001,-1.897999 0.537001,-2.748001l-3.996,0l0,10.961c0,1.414001 1.15,2.563999 2.563999,2.563999l16.424999,0c1.414001,0 2.564003,-1.149998 2.564003,-2.563999l0,-10.960999l-3.998001,0c0.347,0.85 0.542,1.775999 0.542,2.747999z" fill="#ffffff" fill-rule="evenodd" id="svg_5"/>
  </g>
 </g>
</svg>