<?xml version="1.0"?>
<svg width="60.3" height="60.3" xmlns="http://www.w3.org/2000/svg" xmlns:svg="http://www.w3.org/2000/svg">
 <g>
  <title>Layer 1</title>
  <path id="svg_1" fill-rule="evenodd" clip-rule="evenodd" fill="#ffffff" d="m47.032711,44.33271l0,-11.712002c0,-6.274998 -3.350002,-9.194998 -7.816002,-9.194998c-3.604,0 -5.218998,1.983 -6.118999,3.373999l0,-2.893999l-6.789999,0c0.09,1.917 0,20.427 0,20.427l6.789999,0l0,-11.408001c0,-0.609001 0.043999,-1.219 0.223999,-1.654999c0.490002,-1.220001 1.607002,-2.483 3.482002,-2.483c2.458,0 3.439999,1.872999 3.439999,4.617998l0,10.929001l6.789001,0l0,-0.000999zm-27.878,-23.215c2.366999,0 3.841999,-1.57 3.841999,-3.531c-0.044001,-2.003 -1.475,-3.528 -3.796999,-3.528s-3.841001,1.524 -3.841001,3.528c0,1.961 1.474,3.531 3.752999,3.531l0.043001,0zm11.040998,39.077999c-16.567999,0 -29.999999,-13.431999 -29.999999,-30c0,-16.568999 13.432,-29.999999 29.999999,-29.999999s30,13.431 30,29.999999c0,16.568001 -13.431999,30 -30,30zm-7.646,-15.862999l0,-20.427l-6.789,0l0,20.427l6.789,0z"/>
 </g>
</svg>