<?xml version="1.0"?>
<svg width="49.5" height="49.5" xmlns="http://www.w3.org/2000/svg" xmlns:svg="http://www.w3.org/2000/svg">
 <g>
  <title>Layer 1</title>
  <path d="m24.765181,0.1291c-13.6,0 -24.625001,11.027 -24.625001,24.625001c0,13.599998 11.025,24.622997 24.625001,24.622997c13.6,0 24.624998,-11.022999 24.624998,-24.622997c0,-13.598001 -11.025997,-24.625001 -24.624998,-24.625001zm6.517,24.522l-4.264,0c0,6.813999 0,15.207001 0,15.207001l-6.320002,0c0,0 0,-8.307001 0,-15.207001l-3.005999,0l0,-5.368999l3.005999,0l0,-3.479001c0,-2.49 1.182001,-6.377 6.379002,-6.377l4.679998,0.018001l0,5.214999c0,0 -2.845999,0 -3.397999,0c-0.555,0 -1.34,0.277 -1.34,1.461l0,3.163l4.817999,0l-0.554998,5.368z" fill="#ffffff" fill-rule="evenodd" id="svg_1"/>
 </g>
</svg>